<?xml version="1.0" standalone="no"?>
<!DOCTYPE svg PUBLIC "-//W3C//DTD SVG 20010904//EN"
 "http://www.w3.org/TR/2001/REC-SVG-20010904/DTD/svg10.dtd">
<svg version="1.0" xmlns="http://www.w3.org/2000/svg"
 width="1920.000000pt" height="1080.000000pt" viewBox="0 0 1920.000000 1080.000000"
 preserveAspectRatio="xMidYMid meet">

<g transform="translate(0.000000,1080.000000) scale(0.100000,-0.100000)"
fill="#000000" stroke="none">
<path d="M0 5400 l0 -5400 9595 0 9595 0 0 5400 0 5400 -9595 0 -9595 0 0
-5400z m6590 3234 c0 -145 1 -156 18 -149 126 52 264 15 328 -87 13 -21 24
-44 24 -52 0 -25 21 -29 43 -8 90 81 246 79 335 -6 53 -50 74 -94 80 -170 4
-52 1 -72 -18 -113 -13 -27 -27 -49 -32 -49 -4 0 -8 -5 -8 -11 0 -16 -37 -47
-82 -70 -56 -29 -164 -26 -227 6 -65 32 -102 77 -125 149 -6 18 -7 18 -29 -1
-48 -44 -99 -63 -172 -63 -40 0 -81 6 -97 14 -32 17 -38 12 -38 -31 l0 -33
170 0 171 0 24 -26 c18 -20 25 -39 27 -82 l3 -57 202 -5 c187 -5 203 -6 217
-25 23 -30 23 -370 0 -423 -47 -112 -161 -164 -356 -161 -103 1 -109 0 -127
-23 -11 -13 -45 -37 -77 -53 -50 -25 -72 -30 -156 -33 l-98 -4 0 -169 0 -168
-32 5 c-18 3 -55 10 -83 15 -48 9 -198 35 -260 46 -72 12 -455 77 -614 104
-96 16 -188 33 -203 37 l-28 7 0 815 0 815 28 7 c26 7 247 46 472 83 52 9 131
22 175 30 44 9 107 19 140 24 33 5 101 17 150 26 105 19 237 42 248 44 4 1 7
-69 7 -155z m4900 -574 c0 -27 -3 -30 -32 -30 -46 0 -68 -25 -68 -77 l0 -43
70 0 70 0 0 43 c0 41 2 44 35 54 l35 11 0 -53 0 -54 48 -3 c43 -3 47 -5 50
-30 3 -27 2 -28 -47 -28 l-51 0 0 -121 c0 -135 8 -155 60 -147 32 5 45 -11 35
-43 -5 -15 -16 -19 -58 -19 -55 1 -78 12 -92 45 -13 30 -12 27 -14 160 l-1
126 -67 -3 -68 -3 -3 -162 -2 -163 -35 0 -35 0 -2 163 -3 162 -26 3 c-48 6
-46 62 2 62 28 0 29 2 29 46 0 84 45 134 123 134 46 0 47 -1 47 -30z m-2004
12 c18 -12 25 -44 13 -58 -17 -21 -77 -18 -81 4 -10 44 33 78 68 54z m-622
-18 c9 -3 16 -17 16 -30 0 -13 4 -24 8 -24 4 0 14 -17 21 -37 8 -21 29 -69 47
-108 18 -38 46 -103 62 -144 l30 -75 15 35 c20 45 87 196 129 289 45 101 44
100 88 100 22 0 39 -5 41 -12 2 -7 3 -129 1 -270 l-3 -258 -34 0 -35 0 0 202
0 203 -35 -72 c-19 -40 -35 -75 -35 -79 0 -3 -13 -34 -29 -68 -16 -33 -41 -89
-56 -124 -37 -83 -55 -81 -97 13 -17 39 -44 97 -59 130 -44 98 -75 168 -85
193 -7 16 -10 -45 -9 -185 l0 -208 -32 -3 c-34 -3 -35 -2 -35 53 0 14 0 129 1
255 l1 230 34 0 c19 0 41 -3 50 -6z m3394 -26 l-3 -33 -70 -1 -70 -1 -3 -237
-2 -236 -35 0 -35 0 0 235 0 234 -72 3 -73 3 -3 33 -3 32 186 0 186 0 -3 -32z
m-2766 -275 c4 -225 3 -233 -32 -233 -16 0 -30 7 -34 16 -8 21 -8 359 1 367 3
4 19 7 34 7 l28 0 3 -157z m342 151 c10 -4 16 -18 16 -39 l0 -32 -49 13 c-99
25 -166 -28 -165 -131 2 -117 69 -158 192 -120 20 7 22 4 22 -24 0 -39 -26
-51 -113 -51 -50 0 -70 5 -100 25 -20 14 -37 32 -37 40 0 8 -4 15 -9 15 -14 0
-31 58 -31 105 0 85 43 163 105 191 31 14 141 19 169 8z m146 -19 c0 -14 3
-25 6 -25 3 0 15 11 26 25 15 20 28 25 64 25 44 0 44 0 44 -35 0 -35 -1 -36
-33 -30 -25 5 -38 1 -59 -17 -35 -30 -47 -86 -48 -210 l0 -98 -30 0 -30 0 0
195 0 195 30 0 c25 0 30 -4 30 -25z m451 2 c19 -12 44 -42 57 -67 20 -38 23
-56 19 -115 -6 -115 -57 -173 -157 -182 -83 -8 -124 3 -164 41 -93 91 -65 283
49 332 16 7 60 13 96 14 52 0 73 -5 100 -23z m359 -11 l0 -34 -74 5 c-70 5
-74 4 -81 -16 -9 -29 2 -71 18 -71 6 0 40 -13 75 -30 69 -33 88 -61 78 -119
-9 -56 -45 -84 -115 -89 -33 -2 -76 -1 -96 2 -32 6 -35 10 -35 43 0 32 2 35
23 28 43 -15 127 -17 142 -5 36 30 2 77 -73 100 -59 18 -92 60 -92 113 1 76
47 107 158 107 l72 0 0 -34z m376 4 c87 -80 85 -240 -5 -324 -25 -24 -42 -31
-91 -34 -85 -6 -124 4 -163 42 -67 65 -75 208 -15 281 44 53 79 66 170 63 66
-3 80 -7 104 -28z m1335 -7 c30 -34 49 -88 49 -140 l0 -33 -130 0 c-128 0
-130 0 -130 -22 0 -13 9 -37 20 -55 33 -54 93 -60 193 -18 14 6 17 2 17 -27 0
-32 -3 -36 -39 -46 -21 -7 -69 -12 -106 -12 -65 0 -69 2 -105 38 -76 75 -81
212 -12 293 45 53 63 59 146 56 62 -3 71 -5 97 -34z m345 13 c33 -28 42 -81
43 -253 l1 -113 -35 0 c-28 0 -35 4 -35 20 0 11 -4 20 -10 20 -5 0 -10 -4 -10
-8 0 -16 -51 -32 -100 -32 -41 0 -56 5 -82 29 -28 25 -33 36 -33 74 0 85 41
121 151 133 75 9 86 16 72 54 -17 51 -107 59 -159 14 -24 -21 -29 -17 -29 21
0 31 5 38 33 50 17 8 62 14 99 15 56 0 71 -4 94 -24z m194 3 l0 -20 29 20 c52
37 167 21 185 -26 6 -15 10 -13 32 12 20 23 34 29 79 33 73 6 96 -2 123 -41
20 -31 22 -44 22 -190 l0 -157 -30 0 -30 0 0 113 c-1 174 -17 217 -83 217 -19
0 -38 -10 -58 -31 -28 -30 -28 -33 -31 -162 l-3 -132 -32 -3 -32 -3 -3 146
c-3 141 -4 148 -27 166 -38 31 -90 22 -118 -20 -21 -31 -23 -45 -23 -163 l0
-129 -32 3 -33 3 -3 193 -2 192 35 0 c29 0 35 -4 35 -21z m778 -17 l3 -32 -55
6 c-67 8 -103 0 -111 -25 -6 -20 13 -61 28 -61 17 0 103 -43 125 -63 17 -16
22 -32 22 -68 0 -76 -45 -109 -148 -109 -89 0 -102 6 -102 47 0 32 2 35 23 29
40 -13 105 -19 131 -12 20 5 26 13 26 34 -1 31 -23 50 -92 76 -55 20 -88 60
-88 106 0 76 52 112 160 108 l75 -3 3 -33z m-3580 -2692 c2 -5 21 -10 43 -10
21 0 39 -4 39 -9 0 -4 30 -11 68 -15 37 -3 108 -15 157 -25 170 -36 197 -41
226 -41 16 0 29 -4 29 -9 0 -4 26 -11 58 -14 31 -3 70 -10 85 -16 l28 -11 -3
-632 -4 -633 -33 -80 c-18 -44 -37 -81 -42 -83 -5 -2 -9 -9 -9 -15 0 -7 -9
-18 -20 -25 -11 -7 -20 -17 -20 -23 0 -13 -77 -108 -102 -127 -10 -7 -18 -20
-18 -28 0 -8 -8 -18 -17 -21 -10 -4 -49 -33 -87 -65 -39 -32 -75 -58 -82 -58
-6 0 -17 -7 -24 -15 -18 -22 -143 -105 -158 -105 -7 0 -30 -11 -52 -25 -22
-14 -44 -25 -49 -25 -5 0 -11 -7 -15 -15 -3 -8 -15 -15 -26 -15 -11 0 -37 -9
-57 -20 -45 -24 -86 -26 -103 -5 -7 8 -21 15 -31 15 -9 0 -24 6 -31 14 -8 7
-25 17 -38 21 -14 4 -57 27 -97 51 -39 24 -75 44 -80 44 -4 0 -19 9 -33 20
-14 11 -33 20 -42 20 -10 0 -18 5 -18 11 0 13 -40 48 -55 49 -5 0 -28 16 -49
35 -22 19 -43 35 -48 35 -4 0 -8 7 -8 15 0 8 -7 15 -15 15 -8 0 -15 6 -15 13
0 14 -56 67 -71 67 -5 0 -9 4 -9 8 0 4 -11 21 -25 37 -43 52 -94 132 -101 159
-3 15 -10 29 -15 32 -5 3 -9 14 -9 26 0 11 -6 34 -14 51 -29 67 -36 203 -36
684 0 264 3 508 6 542 6 56 9 61 31 61 13 0 31 4 41 10 9 5 51 14 92 20 41 5
107 17 145 25 39 9 106 23 150 31 44 8 100 18 125 23 25 5 80 14 123 22 42 7
77 17 77 22 0 14 234 1 238 -13z m-4570 -93 c72 -50 73 -58 70 -386 l-3 -290
-30 -31 c-42 -45 -76 -60 -135 -60 l-50 0 0 -120 c0 -66 -3 -120 -7 -120 -5 0
-26 17 -49 38 -70 65 -194 175 -212 188 -13 11 -116 13 -490 14 -645 0 -592
-35 -592 394 0 272 1 291 20 321 22 36 58 63 99 76 14 4 321 7 682 6 l656 -2
41 -28z m7447 -195 l80 -17 3 -69 c3 -59 5 -67 20 -60 42 18 70 16 81 -5 24
-44 -15 -101 -69 -101 l-26 0 -17 -147 c-25 -215 -28 -200 41 -212 259 -49
385 -131 472 -308 23 -45 45 -94 50 -110 5 -15 22 -66 39 -112 29 -82 31 -111
7 -111 -31 -1 -35 -15 -20 -75 28 -121 45 -212 60 -320 9 -60 22 -155 29 -210
8 -55 18 -145 24 -200 6 -55 20 -125 32 -155 16 -43 20 -67 15 -109 -11 -95
-45 -143 -86 -121 -13 7 -21 6 -30 -5 -12 -15 -105 -16 -128 -1 -19 11 -14 33
8 39 29 7 29 77 1 77 -11 0 -21 -5 -23 -10 -2 -6 -19 -13 -39 -16 -56 -9 -58
17 -4 52 84 53 100 129 61 290 -34 142 -101 396 -121 459 -9 28 -30 93 -47
145 -16 52 -38 104 -48 115 -9 11 -39 64 -66 119 -49 98 -49 98 -61 70 -7 -16
-12 -45 -12 -64 -1 -62 27 -231 62 -383 27 -118 31 -150 20 -154 -17 -6 -16
-17 1 -56 35 -80 59 -187 88 -382 17 -118 20 -195 21 -490 0 -204 -4 -394 -11
-455 -6 -58 -16 -166 -23 -240 -13 -158 -63 -575 -83 -699 -8 -47 -19 -122
-26 -166 -21 -144 -42 -269 -56 -331 -8 -33 -14 -73 -14 -88 0 -15 -5 -37 -11
-48 -12 -22 -1 -34 46 -50 11 -4 58 -20 104 -36 84 -29 115 -52 96 -71 -7 -7
-73 -8 -185 -3 l-175 7 105 6 c58 4 7 5 -112 3 l-218 -4 0 48 c0 26 4 62 9 80
7 22 6 32 -1 32 -7 0 -9 20 -4 63 16 142 81 1121 106 1592 13 268 15 859 1
935 -29 165 -63 153 -106 -39 -23 -104 -34 -158 -66 -311 -19 -92 -61 -286
-69 -320 -5 -19 -17 -69 -26 -110 -9 -41 -25 -100 -34 -130 -10 -30 -28 -93
-40 -140 -12 -47 -31 -110 -40 -140 -10 -30 -33 -102 -50 -160 -18 -58 -44
-141 -60 -185 -15 -44 -33 -100 -41 -125 -7 -25 -25 -79 -40 -120 -14 -41 -32
-95 -40 -120 -7 -25 -30 -91 -51 -148 -21 -56 -38 -111 -38 -122 0 -11 -4 -20
-9 -20 -5 0 -12 -16 -16 -36 -3 -20 -12 -50 -20 -68 -7 -17 -37 -98 -67 -179
l-53 -149 -33 4 c-36 4 -42 -7 -39 -67 l2 -30 -395 0 -395 0 0 25 c0 24 3 25
130 41 72 10 153 22 180 27 133 27 202 46 227 60 26 15 26 16 8 29 -18 13 -18
44 1 69 5 6 12 33 16 60 3 27 9 51 13 54 3 3 17 46 29 95 13 50 27 94 32 100
5 5 9 16 9 25 0 8 11 51 25 95 42 138 87 289 95 325 5 19 20 73 35 120 28 93
72 238 85 285 4 17 15 55 24 85 57 195 152 603 176 755 4 28 13 70 18 95 6 25
18 86 27 135 9 50 22 122 30 160 7 39 21 111 30 160 9 50 20 109 25 133 14 61
13 72 -10 72 -11 0 -20 6 -20 13 0 14 24 262 50 502 10 94 16 172 14 174 -4 5
-78 -50 -82 -62 -2 -4 -11 -2 -19 4 -9 8 -17 9 -21 3 -15 -22 -171 -143 -241
-187 -102 -64 -128 -64 -195 6 -28 28 -61 66 -74 82 -63 83 -255 398 -281 463
-10 24 -19 32 -39 32 -19 0 -43 18 -89 67 -35 36 -63 69 -63 73 0 4 7 13 15
20 8 7 15 19 15 27 0 7 8 17 18 20 9 4 22 13 28 21 8 11 15 12 32 3 31 -17 32
-15 6 47 -39 94 -29 119 22 59 28 -32 76 -93 100 -125 9 -13 12 -11 17 10 11
43 46 78 78 78 33 0 39 -21 13 -47 -13 -14 -15 -31 -9 -106 7 -87 9 -92 54
-152 25 -34 79 -106 120 -161 41 -54 77 -101 80 -104 3 -3 19 -22 34 -42 15
-21 31 -38 36 -38 4 0 35 25 69 56 54 49 60 58 49 75 -12 20 -16 15 162 196
52 52 159 133 177 133 4 0 27 9 50 21 26 12 81 24 141 31 54 5 99 11 99 12 1
0 4 25 5 55 l4 53 -45 18 -45 18 -5 93 c-3 52 -4 146 -2 210 l5 117 61 9 c89
15 141 13 231 -5z m-5571 -79 c3 -21 6 -59 6 -85 0 -45 11 -61 25 -38 3 6 22
10 41 10 33 0 34 -1 34 -39 0 -45 -20 -71 -55 -71 -13 0 -26 -3 -28 -7 -3 -5
-8 -90 -12 -190 -7 -167 -6 -183 9 -189 10 -4 28 -1 40 6 20 10 33 7 98 -25
64 -31 93 -52 173 -123 43 -39 102 -125 133 -195 70 -158 163 -555 187 -802 7
-70 34 -270 41 -302 2 -13 9 -23 15 -23 18 0 35 -23 53 -72 10 -25 40 -73 68
-105 27 -32 54 -66 59 -75 15 -28 -6 -29 -46 -2 -21 14 -40 23 -42 20 -3 -3 1
-20 10 -38 20 -43 25 -80 11 -85 -6 -2 -27 21 -47 52 -21 30 -39 55 -41 55 -2
0 2 -17 9 -37 36 -104 13 -120 -44 -32 -23 35 -42 70 -43 78 -1 9 -4 -17 -7
-58 -4 -42 -11 -76 -17 -78 -12 -4 -58 105 -70 165 -9 44 -17 46 -43 11 -26
-35 -65 -53 -98 -44 -32 8 -29 29 7 57 26 20 33 35 42 92 8 47 17 70 30 77 11
6 18 21 18 37 0 41 -103 439 -155 598 -56 174 -84 230 -112 226 -16 -2 -25 8
-42 50 l-21 53 5 -115 c2 -63 9 -131 14 -150 13 -51 41 -209 44 -250 2 -34 1
-35 -35 -38 -26 -2 -38 -8 -38 -19 0 -14 -3 -14 -24 1 -32 20 -53 12 -61 -25
-10 -43 -24 -45 -20 -2 4 31 3 34 -4 13 -6 -17 -9 -20 -10 -7 -1 15 -12 17
-90 17 -83 0 -89 -1 -96 -22 l-8 -23 -4 22 c-3 18 -10 21 -31 18 -44 -8 -302
-25 -374 -25 -80 0 -77 -11 -53 170 15 116 45 394 45 418 0 6 -7 12 -15 12 -8
0 -15 -5 -15 -10 0 -6 -20 -43 -44 -83 -85 -139 -146 -250 -146 -263 0 -7 13
-32 28 -56 31 -46 89 -179 129 -297 28 -79 25 -91 -26 -91 -19 0 -22 -4 -17
-24 12 -48 25 -164 27 -239 3 -101 -8 -112 -113 -129 l-76 -12 -4 -57 -3 -56
515 1 515 1 3 -132 3 -133 -121 0 c-109 0 -120 -2 -120 -18 0 -10 20 -121 45
-246 25 -126 45 -236 45 -245 0 -9 5 -32 10 -52 l10 -36 102 -7 c56 -4 105 -9
108 -11 9 -5 -22 -292 -59 -545 -20 -138 -20 -144 27 -375 17 -82 34 -174 38
-203 5 -42 11 -53 28 -57 71 -16 123 -25 219 -36 101 -11 108 -13 105 -33 -3
-20 -10 -21 -188 -26 -102 -3 -272 -3 -377 -1 l-193 3 0 52 c0 56 6 69 33 79
9 3 17 17 17 29 0 13 7 95 15 183 8 88 19 237 25 330 l11 170 -50 195 c-28
107 -69 263 -91 345 -22 83 -56 213 -75 290 -20 77 -40 157 -46 178 l-10 37
-312 0 -313 0 -39 -40 -39 -40 39 -1 c22 0 61 0 87 1 67 2 88 -12 88 -60 l0
-40 -165 0 c-164 0 -165 0 -165 23 -1 21 -1 21 -11 3 -9 -14 -8 -20 1 -26 7
-4 10 -12 7 -17 -4 -6 -7 -335 -8 -732 0 -512 -4 -723 -12 -728 -6 -3 -13 -1
-15 5 -2 6 -9 9 -17 6 -7 -3 -16 -1 -20 5 -3 6 -15 11 -25 11 -14 0 -20 -8
-22 -32 -3 -32 -5 -33 -53 -36 -32 -2 -44 -6 -35 -12 7 -4 46 -6 86 -3 60 5
76 3 90 -11 12 -13 19 -14 24 -6 4 7 19 13 32 13 23 2 26 9 42 82 10 44 27
112 37 150 10 39 30 120 44 180 14 61 63 256 108 435 l82 325 55 -3 c179 -8
210 -13 210 -34 0 -19 -59 -206 -125 -398 -19 -52 -38 -111 -43 -130 -13 -46
-80 -239 -92 -265 -5 -11 -21 -56 -35 -100 -15 -44 -42 -124 -62 -177 -19 -54
-33 -105 -30 -113 7 -17 66 -43 119 -51 34 -6 38 -10 38 -35 l0 -29 -122 0
c-68 0 -271 -2 -451 -4 -317 -3 -328 -2 -338 17 -6 10 -7 22 -2 27 4 4 60 13
123 20 159 18 164 20 171 61 3 19 8 39 10 44 6 17 -24 255 -32 255 -4 0 -10
44 -13 98 -9 134 -35 337 -46 368 -6 14 -10 41 -10 60 0 19 -4 34 -10 34 -6 0
-10 35 -10 85 0 82 -7 99 -30 73 -20 -25 -90 -139 -90 -148 0 -6 -3 -10 -8
-10 -4 0 -13 -15 -21 -33 -8 -17 -31 -57 -50 -87 -20 -30 -43 -68 -51 -85 -8
-16 -17 -32 -20 -35 -15 -14 -79 -119 -86 -142 -4 -10 -10 -18 -14 -18 -4 0
-10 -8 -13 -18 -8 -22 -58 -106 -77 -129 -9 -10 -23 -34 -32 -53 -9 -19 -26
-45 -38 -58 -18 -19 -24 -21 -37 -11 -12 11 -24 2 -71 -52 -194 -219 -341
-314 -388 -252 -30 39 -10 80 131 271 66 90 91 117 96 105 4 -11 8 -4 12 22 4
22 2 44 -3 49 -7 7 -10 2 -10 -12 0 -12 -6 -22 -13 -22 -17 0 -117 50 -117 59
0 3 11 23 25 43 14 20 25 39 25 42 0 4 15 30 92 161 10 17 26 45 35 63 9 17
20 32 25 32 4 0 8 6 8 14 0 8 22 50 48 93 27 43 55 89 63 103 8 14 16 27 19
30 10 10 30 50 30 60 0 6 9 20 20 32 10 11 32 46 48 77 16 31 48 87 72 125 45
75 67 111 113 196 16 30 37 66 47 80 9 14 20 35 23 48 5 20 2 23 -21 22 -15
-1 -109 -2 -209 -1 l-183 1 0 38 c0 62 5 65 120 61 76 -3 104 -1 107 9 3 6 -2
12 -11 12 -8 0 -23 14 -33 30 l-17 30 -1006 -1 c-553 -1 -1018 -4 -1034 -8
-29 -6 -31 -8 -72 -176 -23 -94 -58 -247 -79 -341 l-39 -172 30 -58 c16 -33
32 -60 37 -62 4 -2 7 -10 7 -18 0 -8 20 -57 45 -107 25 -51 45 -98 45 -105 0
-7 5 -12 10 -12 6 0 10 -5 10 -11 0 -7 30 -73 67 -148 54 -109 67 -145 67
-182 0 -30 -6 -53 -17 -64 -9 -9 -17 -22 -17 -29 0 -20 -52 -118 -80 -151 -94
-110 -265 -245 -313 -245 -19 0 -97 -42 -92 -49 3 -5 27 -14 55 -21 43 -10 50
-15 50 -36 0 -24 -1 -24 -106 -24 -87 0 -109 -3 -119 -16 -9 -13 -21 -15 -54
-9 -23 4 -44 12 -47 19 -3 9 -44 11 -154 9 l-150 -4 0 25 c0 39 -68 49 -329
50 -170 1 -225 4 -228 14 -3 6 -14 12 -24 12 -25 0 -119 30 -136 42 -7 6 -31
0 -65 -16 -29 -13 -81 -30 -116 -37 -80 -15 -299 -6 -365 15 -174 56 -324 203
-356 348 -6 26 -15 109 -21 185 -9 124 -13 144 -40 198 -31 61 -82 125 -99
125 -5 0 -23 14 -41 30 -18 17 -47 40 -64 52 -54 37 -131 122 -153 168 -20 44
-32 104 -54 270 -12 95 -41 210 -71 279 -56 129 -79 222 -79 316 0 59 5 105
14 126 46 106 139 173 243 174 97 0 170 -43 302 -180 130 -135 163 -161 250
-192 101 -38 328 -90 351 -81 6 2 -8 46 -30 98 -22 52 -43 104 -46 115 -4 11
-9 22 -13 25 -4 3 -18 45 -30 95 -17 67 -21 104 -16 149 7 66 34 185 46 201 4
6 11 21 15 35 4 14 31 75 60 135 90 189 134 331 170 550 39 238 103 436 163
500 9 11 28 34 40 52 28 39 123 112 177 136 190 82 371 52 490 -81 46 -52 85
-124 78 -146 -3 -11 -13 -28 -22 -38 -45 -47 -80 -145 -110 -302 -17 -88 -34
-162 -39 -165 -4 -3 -13 -27 -20 -54 -6 -26 -20 -62 -30 -81 -9 -18 -25 -50
-36 -72 -10 -21 -23 -47 -28 -57 -5 -10 -6 -27 -3 -38 4 -11 3 -19 -2 -18 -32
5 -49 -4 -62 -33 -7 -18 -19 -46 -26 -63 -39 -89 -48 -156 -41 -330 3 -93 12
-208 20 -255 7 -47 19 -123 26 -170 6 -47 15 -107 20 -135 5 -27 16 -102 26
-165 9 -63 25 -169 36 -235 10 -66 25 -167 33 -225 8 -58 24 -157 35 -220 10
-63 20 -131 21 -150 2 -19 6 -39 9 -45 7 -10 20 -89 41 -245 6 -47 15 -105 19
-130 13 -77 51 -323 58 -375 l7 -49 185 3 c102 1 188 6 191 9 6 7 20 80 40
205 14 82 15 71 -36 332 -7 39 -23 131 -34 205 -12 75 -28 162 -35 195 -8 33
-24 128 -36 210 -24 164 -31 213 -56 355 -8 52 -20 130 -25 175 -11 91 -22
182 -39 305 -33 246 -19 376 33 296 9 -13 23 -31 33 -40 9 -10 26 -36 38 -59
l21 -42 253 -3 c161 -1 252 1 252 8 0 10 -6 20 -88 163 -83 142 -108 175 -142
182 -16 4 -30 11 -30 16 0 5 -8 9 -17 9 -18 0 -80 20 -98 32 -5 3 -36 12 -67
19 -32 8 -58 17 -58 21 0 5 -7 8 -15 8 -8 0 -34 9 -58 19 -42 19 -72 27 -134
38 -18 3 -33 9 -33 13 0 5 -24 16 -52 26 -29 9 -57 20 -63 24 -5 5 -27 11 -48
15 -38 7 -46 27 -14 33 10 2 17 -3 17 -12 0 -16 21 -21 85 -19 17 1 22 -1 13
-4 -20 -5 -25 -23 -7 -23 6 0 26 7 45 16 20 10 51 15 78 13 24 -2 42 -1 40 3
-2 4 0 9 6 13 5 3 10 1 10 -4 0 -6 7 -11 16 -11 12 0 14 3 6 13 -6 6 -17 46
-26 87 -9 41 -25 111 -37 155 -11 44 -24 98 -29 120 -5 22 -16 63 -24 90 -9
28 -16 60 -16 73 0 12 -4 22 -9 22 -11 0 -32 103 -23 111 4 4 63 16 132 29 69
12 141 26 160 31 19 5 37 5 40 1 4 -4 19 -110 34 -237 16 -126 30 -232 32
-234 5 -5 414 -10 414 -5 0 2 -13 34 -30 71 -33 73 -34 77 -19 68 5 -4 35 10
66 30 53 35 57 36 99 26 23 -6 67 -11 96 -11 l54 0 14 -42 c8 -23 20 -43 25
-45 6 -1 21 13 34 32 27 40 48 45 60 13 11 -29 -4 -70 -35 -101 l-24 -24 37
-7 c21 -3 54 -6 73 -6 19 -1 58 -6 87 -13 72 -17 57 -34 -42 -48 l-80 -12 89
-23 c93 -23 113 -34 101 -54 -5 -9 -25 -10 -66 -6 -33 4 -59 5 -59 3 0 -2 27
-14 61 -26 35 -13 59 -27 56 -34 -4 -12 -28 -12 -112 -1 l-40 5 39 -36 c50
-45 38 -62 -23 -34 -40 18 -43 18 -38 2 37 -120 174 -510 181 -515 5 -3 48
-14 95 -24 47 -9 95 -23 106 -31 16 -11 140 -13 652 -13 l633 1 0 28 c0 15 -3
69 -7 120 l-6 92 -41 17 c-102 40 -278 134 -315 168 -30 26 -41 44 -41 65 0
16 5 29 10 29 6 0 10 6 10 14 0 16 156 239 171 244 12 5 11 32 -1 32 -31 0 9
50 165 205 114 114 121 119 208 159 78 37 161 56 243 56 l51 0 7 38 c3 20 6
53 6 73 0 38 -2 39 -96 64 -26 7 -34 57 -34 233 l0 122 68 0 c93 0 191 17 230
41 44 26 47 25 67 -18 10 -21 26 -56 36 -77 11 -22 19 -46 19 -53 0 -18 7 -16
30 7 42 42 87 15 77 -48 -7 -42 -29 -62 -68 -62 -15 0 -30 -4 -34 -9 -8 -15
-37 -312 -31 -328 3 -7 19 -13 35 -13 43 0 197 -38 265 -66 33 -13 60 -23 61
-21 5 6 65 138 65 142 0 3 25 50 56 105 35 65 53 107 49 119 -9 29 57 133 130
206 102 102 188 147 316 166 46 7 87 15 90 18 4 3 9 43 13 88 l6 82 -60 13
-60 12 0 167 0 168 48 6 c81 10 181 38 220 61 55 33 68 30 76 -13z m-4104
-294 c0 -27 114 -96 243 -148 26 -10 40 -51 17 -51 -5 0 -10 -5 -10 -11 0 -20
-122 -259 -134 -260 -6 0 -36 0 -67 1 l-56 1 -15 -48 c-9 -26 -21 -74 -28
-105 -7 -32 -17 -58 -22 -58 -4 0 -8 -7 -8 -16 0 -12 -7 -15 -22 -12 -58 12
-233 52 -236 54 -5 3 26 105 60 204 28 81 55 171 65 215 3 15 -3 23 -26 32
-39 14 -50 53 -28 99 9 19 24 34 32 34 25 0 55 -19 55 -35 0 -8 3 -15 6 -15 3
0 38 29 77 65 68 62 97 78 97 54z m-54 -1127 c-18 -16 -18 -16 -6 6 6 13 14
21 18 18 3 -4 -2 -14 -12 -24z m13762 -155 c350 -123 542 -481 447 -835 -38
-140 -83 -219 -183 -318 -121 -121 -268 -187 -442 -200 -323 -24 -635 197
-715 506 -86 332 67 674 367 815 119 56 166 65 318 61 114 -2 147 -7 208 -29z
m-9468 -150 c0 -5 -4 -5 -10 -2 -5 3 -10 14 -10 23 0 15 2 15 10 2 5 -8 10
-19 10 -23z m80 23 c0 -5 -7 -7 -15 -4 -8 4 -15 8 -15 10 0 2 7 4 15 4 8 0 15
-4 15 -10z m-5363 -42 c-3 -8 -6 -5 -6 6 -1 11 2 17 5 13 3 -3 4 -12 1 -19z
m4973 14 c0 -4 -17 -6 -37 -4 -59 5 -63 10 -10 11 26 1 47 -3 47 -7z m-137 -9
c-7 -2 -19 -2 -25 0 -7 3 -2 5 12 5 14 0 19 -2 13 -5z m-198 -23 c-32 -7 -48
-3 -41 9 3 4 20 5 38 2 l33 -5 -30 -6z m755 -11 c9 -15 7 -19 -6 -19 -10 0
-14 3 -11 6 3 4 2 16 -4 27 -8 14 -8 18 0 13 6 -4 16 -16 21 -27z m-5050 11
c0 -5 -4 -10 -10 -10 -5 0 -10 5 -10 10 0 6 5 10 10 10 6 0 10 -4 10 -10z
m4457 4 c-3 -3 -12 -4 -19 -1 -8 3 -5 6 6 6 11 1 17 -2 13 -5z m156 -1 c-13
-2 -35 -2 -50 0 -16 2 -5 4 22 4 28 0 40 -2 28 -4z m87 -8 c0 -8 -7 -15 -15
-15 -13 0 -14 3 -3 15 16 18 18 18 18 0z m-5025 -44 c-5 -2 -13 -8 -16 -14 -4
-5 -9 -5 -13 2 -4 6 -2 11 5 11 8 0 9 3 0 13 -17 21 -2 28 18 9 10 -10 12 -19
6 -21z m62 33 c-3 -3 -12 -4 -19 -1 -8 3 -5 6 6 6 11 1 17 -2 13 -5z m4623 -4
c0 -5 -5 -10 -11 -10 -5 0 -7 5 -4 10 3 6 8 10 11 10 2 0 4 -4 4 -10z m67 -12
c-3 -8 -6 -5 -6 6 -1 11 2 17 5 13 3 -3 4 -12 1 -19z m30 -10 c-3 -7 -5 -2 -5
12 0 14 2 19 5 13 2 -7 2 -19 0 -25z m557 23 c4 -5 -3 -7 -14 -4 -23 6 -26 13
-6 13 8 0 17 -4 20 -9z m-5022 -33 c-9 -9 -12 -7 -12 12 0 19 3 21 12 12 9 -9
9 -15 0 -24z m4405 -30 c-3 -8 -6 -5 -6 6 -1 11 2 17 5 13 3 -3 4 -12 1 -19z
m563 12 c0 -5 -4 -10 -10 -10 -5 0 -10 5 -10 10 0 6 5 10 10 10 6 0 10 -4 10
-10z m115 0 c3 -5 1 -10 -4 -10 -6 0 -11 5 -11 10 0 6 2 10 4 10 3 0 8 -4 11
-10z m7886 -216 c30 -9 61 -22 70 -30 8 -8 19 -14 23 -14 13 0 65 -63 82 -99
12 -25 15 -52 12 -102 -5 -68 -33 -137 -112 -277 -44 -79 -74 -166 -82 -237
-5 -52 1 -89 45 -264 42 -168 51 -218 51 -292 0 -187 -67 -272 -300 -379 -41
-19 -101 -51 -134 -72 -32 -21 -62 -38 -67 -38 -5 0 -9 -6 -9 -14 0 -8 -6 -16
-13 -19 -28 -11 -56 -95 -76 -227 -25 -164 -62 -248 -149 -337 -61 -63 -135
-123 -151 -123 -5 0 -11 -3 -13 -8 -5 -11 -125 -59 -198 -78 -45 -12 -104 -18
-195 -18 -143 0 -234 20 -347 74 -31 15 -59 25 -62 22 -4 -3 -6 0 -6 6 0 6 -9
14 -20 17 -11 3 -57 42 -102 86 -45 43 -87 79 -93 79 -24 0 -135 66 -185 110
-28 25 -67 66 -86 92 -37 52 -84 144 -84 165 0 7 -4 13 -8 13 -10 0 -32 126
-32 183 0 100 61 236 145 324 27 29 55 53 61 53 7 0 14 6 17 13 6 17 95 64
257 137 118 52 203 105 223 137 4 6 14 18 21 25 27 27 45 70 107 253 39 112
88 187 159 241 30 23 125 77 210 121 143 73 207 109 220 123 3 3 21 17 40 30
19 13 37 27 40 30 3 3 21 17 40 30 19 13 42 32 51 42 9 10 19 18 22 18 3 0 20
13 37 29 18 16 44 35 58 42 15 8 34 22 44 31 26 26 136 79 203 99 78 23 214
24 286 3z m2885 -189 c8 -10 14 -32 14 -49 0 -34 25 -66 52 -66 19 0 53 17 76
38 7 6 21 12 31 12 21 0 101 -80 101 -101 0 -8 -13 -30 -30 -49 -32 -38 -36
-57 -17 -81 14 -18 69 -39 104 -39 23 0 24 -2 21 -77 l-3 -78 -46 -5 c-86 -10
-105 -48 -60 -114 17 -25 31 -48 31 -52 0 -14 -84 -94 -98 -94 -7 0 -30 11
-50 25 -65 44 -105 25 -116 -54 -6 -47 -9 -51 -39 -56 -46 -9 -108 0 -117 16
-4 8 -11 33 -15 57 -7 46 -26 62 -70 62 -21 0 -26 4 -21 17 4 9 17 55 29 102
12 47 25 88 28 91 3 3 11 32 17 65 6 33 18 92 26 130 27 130 45 230 47 265 2
19 6 40 10 45 13 18 80 11 95 -10z m-136 -964 c50 -48 90 -95 90 -103 0 -8
-27 -53 -60 -99 -33 -46 -60 -93 -60 -103 0 -30 39 -104 58 -110 9 -3 55 -10
102 -16 50 -6 90 -16 100 -25 12 -13 14 -39 12 -143 -2 -70 -8 -132 -13 -138
-5 -6 -51 -17 -102 -24 -100 -14 -121 -25 -143 -79 -21 -51 -18 -63 36 -135
53 -70 70 -99 70 -114 0 -17 -182 -192 -199 -192 -9 0 -52 28 -96 61 -74 56
-83 60 -119 54 -61 -9 -93 -41 -101 -100 -3 -27 -10 -64 -15 -81 l-8 -31 217
-7 c203 -7 507 -30 558 -42 22 -6 33 -34 14 -34 -5 0 -43 -4 -83 -10 -256 -34
-1147 -52 -1955 -39 -751 12 -1067 37 -961 78 58 22 479 49 798 50 l125 1 52
-34 c28 -19 69 -44 90 -56 l39 -21 104 60 105 61 294 0 293 0 -7 77 c-8 86
-21 104 -88 125 -44 13 -74 2 -137 -52 -19 -16 -48 -37 -66 -46 -30 -16 -32
-16 -57 2 -15 10 -27 23 -27 29 0 11 63 68 101 92 30 18 323 313 357 359 21
29 26 31 71 26 62 -6 118 22 154 77 31 47 34 88 12 152 -15 40 -14 47 1 81 9
21 21 38 26 38 4 0 8 4 8 9 0 4 24 53 54 107 29 54 71 140 92 189 22 50 42 92
46 93 5 2 8 12 8 22 0 21 75 79 103 80 9 0 58 -40 107 -89z m-13970 -1356 c89
-20 310 -55 348 -55 15 0 15 -33 1 -47 -12 -12 -539 -9 -746 3 l-93 6 0 59 0
60 193 -1 c163 -1 208 -5 297 -25z"/>
<path d="M6653 8411 c-23 -11 -46 -28 -52 -39 -6 -12 -11 -65 -11 -119 0 -95
1 -100 28 -124 15 -14 46 -31 69 -39 37 -11 48 -11 85 3 132 51 166 195 68
288 -56 52 -116 62 -187 30z"/>
<path d="M7090 8299 c-52 -31 -75 -59 -87 -107 -28 -110 51 -212 165 -212 53
0 90 16 125 54 45 51 58 118 33 177 -39 93 -155 136 -236 88z"/>
<path d="M5975 8154 c-99 -7 -199 -14 -222 -15 l-43 -3 0 -61 0 -62 100 1 101
1 2 -300 2 -300 62 -3 63 -3 2 308 3 308 100 5 100 5 3 68 3 67 -48 -1 c-26
-1 -129 -7 -228 -15z"/>
<path d="M6595 7868 c-3 -7 -4 -171 -3 -363 l3 -350 43 -9 c51 -11 140 7 190
38 18 12 41 39 52 62 19 39 20 58 18 335 l-3 294 -148 3 c-113 2 -149 0 -152
-10z"/>
<path d="M6996 7702 c-3 -5 -5 -106 -5 -226 0 -192 2 -218 16 -223 26 -10 184
13 228 33 22 9 54 33 70 52 l30 35 3 169 4 168 -171 0 c-93 0 -172 -4 -175 -8z"/>
<path d="M10283 7849 c-39 -11 -83 -79 -83 -129 0 -45 34 -114 66 -130 30 -17
83 -17 114 0 27 14 59 84 60 127 0 18 -10 52 -21 77 -17 35 -30 46 -59 55 -21
6 -39 11 -41 10 -2 0 -18 -5 -36 -10z"/>
<path d="M11003 7849 c-39 -11 -83 -79 -83 -129 0 -145 173 -198 224 -69 21
53 20 90 -4 143 -17 35 -28 45 -59 55 -21 6 -40 11 -42 10 -2 0 -18 -5 -36
-10z"/>
<path d="M12354 7848 c-29 -9 -64 -58 -64 -88 0 -6 40 -10 94 -10 l95 0 -9 28
c-14 49 -21 60 -38 65 -9 3 -24 7 -32 10 -8 3 -29 0 -46 -5z"/>
<path d="M12730 7699 c-44 -8 -80 -37 -80 -64 0 -7 8 -23 18 -35 20 -25 56
-29 101 -10 24 10 32 21 40 58 14 67 11 69 -79 51z"/>
<path d="M10246 4284 c-5 -14 -4 -15 9 -4 17 14 19 20 6 20 -5 0 -12 -7 -15
-16z"/>
<path d="M10430 4159 c0 -5 5 -7 10 -4 6 3 10 8 10 11 0 2 -4 4 -10 4 -5 0
-10 -5 -10 -11z"/>
<path d="M9620 4030 c0 -5 5 -10 11 -10 5 0 7 5 4 10 -3 6 -8 10 -11 10 -2 0
-4 -4 -4 -10z"/>
<path d="M9992 3980 c7 -10 14 -18 15 -16 6 6 -9 36 -18 36 -5 0 -4 -9 3 -20z"/>
<path d="M10287 3963 c-4 -3 -7 -11 -7 -17 0 -6 5 -5 12 2 6 6 9 14 7 17 -3 3
-9 2 -12 -2z"/>
<path d="M4503 4787 c-29 -15 -49 -77 -34 -106 39 -72 124 -61 153 20 9 23
-19 75 -48 88 -29 13 -41 13 -71 -2z"/>
<path d="M4898 4770 c-26 -26 -30 -36 -25 -67 14 -82 114 -97 152 -22 20 37 8
79 -31 104 -35 23 -62 18 -96 -15z"/>
<path d="M5312 4772 c-44 -39 -44 -80 0 -117 24 -20 39 -25 60 -21 71 14 92
94 37 140 -39 33 -58 33 -97 -2z"/>
<path d="M12850 4740 c0 -5 7 -10 15 -10 8 0 15 5 15 10 0 6 -7 10 -15 10 -8
0 -15 -4 -15 -10z"/>
<path d="M13050 4740 c0 -5 5 -10 10 -10 6 0 10 5 10 10 0 6 -4 10 -10 10 -5
0 -10 -4 -10 -10z"/>
<path d="M12995 4670 c-3 -5 1 -10 10 -10 9 0 13 5 10 10 -3 6 -8 10 -10 10
-2 0 -7 -4 -10 -10z"/>
<path d="M13028 4563 c7 -3 16 -2 19 1 4 3 -2 6 -13 5 -11 0 -14 -3 -6 -6z"/>
<path d="M13280 3124 c0 -5 7 -19 15 -30 8 -10 15 -14 15 -8 0 5 -7 19 -15 30
-8 10 -15 14 -15 8z"/>
<path d="M13315 3097 c0 -19 7 -37 17 -45 10 -7 18 -21 18 -30 0 -14 2 -14 9
-3 6 9 20 12 47 8 l39 -6 -40 13 c-27 9 -45 23 -58 47 -27 49 -32 52 -32 16z"/>
<path d="M12737 3088 c-4 -18 -9 -44 -13 -58 -5 -17 -3 -22 4 -15 6 6 13 31
17 58 8 53 1 65 -8 15z"/>
<path d="M13000 3096 c0 -43 10 -56 44 -55 l31 1 -27 10 c-22 7 -28 16 -28 39
0 16 -4 29 -10 29 -5 0 -10 -11 -10 -24z"/>
<path d="M12670 2959 c-19 -21 -43 -41 -53 -45 -10 -3 -16 -8 -14 -11 14 -13
117 64 117 87 0 18 -14 9 -50 -31z"/>
<path d="M13401 2745 c0 -11 4 -29 9 -40 l9 -20 0 20 c0 11 -4 29 -9 40 l-9
20 0 -20z"/>
<path d="M12870 2578 c0 -9 -6 -18 -12 -21 -10 -3 -10 -8 -2 -16 9 -10 13 -6
18 14 4 15 5 30 1 33 -3 3 -5 -2 -5 -10z"/>
<path d="M13433 2375 c0 -33 2 -45 4 -27 2 18 2 45 0 60 -2 15 -4 0 -4 -33z"/>
<path d="M12778 2234 c-5 -4 -8 -16 -8 -28 0 -14 3 -17 11 -9 6 6 9 19 7 28
-1 9 -6 13 -10 9z"/>
<path d="M12551 2081 c-7 -5 -9 -11 -5 -14 5 -3 15 1 22 9 14 16 5 18 -17 5z"/>
<path d="M13433 2035 c0 -27 2 -38 4 -22 2 15 2 37 0 50 -2 12 -4 0 -4 -28z"/>
<path d="M12530 1935 c-7 -8 -8 -15 -2 -15 5 0 15 7 22 15 7 8 8 15 2 15 -5 0
-15 -7 -22 -15z"/>
<path d="M12681 1888 c0 -28 2 -30 9 -13 12 28 12 45 0 45 -5 0 -10 -15 -9
-32z"/>
<path d="M13413 1660 c0 -25 2 -35 4 -22 2 12 2 32 0 45 -2 12 -4 2 -4 -23z"/>
<path d="M13273 1665 c-7 -8 -9 -16 -4 -19 5 -3 12 1 15 10 8 22 4 25 -11 9z"/>
<path d="M12586 1574 c-4 -14 -5 -29 -2 -31 3 -3 8 7 12 21 3 15 4 29 1 32 -2
3 -8 -7 -11 -22z"/>
<path d="M13261 1541 c-25 -22 -28 -28 -13 -24 22 5 72 53 56 53 -6 0 -25 -13
-43 -29z"/>
<path d="M13383 1320 c0 -25 2 -35 4 -22 2 12 2 32 0 45 -2 12 -4 2 -4 -23z"/>
<path d="M12476 1234 c-4 -14 -5 -29 -2 -31 3 -3 8 7 12 21 3 15 4 29 1 32 -2
3 -8 -7 -11 -22z"/>
<path d="M13351 1024 c0 -11 3 -14 6 -6 3 7 2 16 -1 19 -3 4 -6 -2 -5 -13z"/>
<path d="M13343 965 c0 -22 2 -30 4 -17 2 12 2 30 0 40 -3 9 -5 -1 -4 -23z"/>
<path d="M12361 896 c-13 -33 -9 -43 8 -22 7 8 11 23 8 33 -3 14 -6 12 -16
-11z"/>
<path d="M13298 650 c-4 -14 -8 -34 -8 -45 1 -19 1 -19 11 -2 6 10 9 30 7 45
l-3 27 -7 -25z"/>
<path d="M12246 564 c-11 -28 -6 -38 9 -18 8 10 15 22 15 27 0 13 -18 7 -24
-9z"/>
<path d="M11950 365 c0 -11 155 -75 182 -75 10 0 17 -4 13 -9 -3 -5 -1 -12 5
-16 5 -3 10 -1 10 4 0 6 10 11 22 11 41 0 2 22 -54 31 -48 8 -105 26 -150 50
-20 10 -28 11 -28 4z"/>
<path d="M13091 301 c-11 -7 -9 -11 10 -21 13 -7 32 -20 41 -29 49 -46 57 -50
55 -22 0 11 -4 19 -7 19 -17 -1 -30 3 -30 11 0 6 18 9 40 8 30 -1 40 -5 39
-17 -1 -8 -1 -22 0 -30 3 -31 21 14 21 53 0 40 -13 48 -29 20 -10 -17 -10 -16
-11 2 0 15 -2 17 -9 6 -9 -13 -57 -12 -91 2 -8 4 -21 3 -29 -2z"/>
<path d="M11738 133 c34 -2 90 -2 125 0 34 2 6 3 -63 3 -69 0 -97 -1 -62 -3z"/>
<path d="M7448 4753 c6 -2 18 -2 25 0 6 3 1 5 -13 5 -14 0 -19 -2 -12 -5z"/>
<path d="M7238 4743 c6 -2 18 -2 25 0 6 3 1 5 -13 5 -14 0 -19 -2 -12 -5z"/>
<path d="M7490 4680 c0 -5 5 -10 10 -10 6 0 10 5 10 10 0 6 -4 10 -10 10 -5 0
-10 -4 -10 -10z"/>
<path d="M7270 4670 c0 -5 7 -10 15 -10 8 0 15 5 15 10 0 6 -7 10 -15 10 -8 0
-15 -4 -15 -10z"/>
<path d="M7361 4619 c0 -9 -10 -24 -21 -34 -19 -17 -19 -35 1 -35 6 0 7 5 4
11 -4 6 1 16 10 23 10 7 15 20 12 32 -3 13 -5 14 -6 3z"/>
<path d="M6153 4019 c-1 -11 5 -19 13 -19 18 0 19 26 1 33 -8 3 -14 -3 -14
-14z"/>
<path d="M5920 4016 c0 -9 7 -16 16 -16 9 0 14 5 12 12 -6 18 -28 21 -28 4z"/>
<path d="M6043 3970 c0 -30 2 -43 4 -27 2 15 2 39 0 55 -2 15 -4 2 -4 -28z"/>
<path d="M5998 3913 c6 -2 18 -2 25 0 6 3 1 5 -13 5 -14 0 -19 -2 -12 -5z"/>
<path d="M6045 3830 c-16 -7 -14 -9 12 -7 17 0 29 5 27 9 -6 10 -13 9 -39 -2z"/>
<path d="M3360 3040 c-103 -13 -130 -20 -130 -35 0 -16 -26 -21 -32 -6 -2 5
-29 6 -63 2 -55 -7 -58 -9 -35 -19 23 -10 22 -11 -17 -11 -24 -1 -43 3 -43 7
0 9 -100 4 -165 -8 -24 -4 31 -7 133 -7 140 1 175 -2 183 -14 5 -8 9 -10 9 -5
0 7 66 -37 80 -54 3 -3 20 -16 38 -29 19 -13 44 -33 56 -45 12 -11 33 -31 47
-43 38 -33 76 -79 120 -143 22 -33 45 -62 50 -66 5 -3 9 -11 9 -19 0 -8 5 -26
12 -42 7 -15 17 -53 22 -83 l11 -55 88 -1 c48 -1 89 2 92 5 2 4 -18 52 -45
106 -27 55 -92 190 -145 300 -52 110 -100 208 -105 217 -6 10 -10 24 -10 32 0
27 -45 31 -160 16z m-152 -67 c16 -16 16 -16 -1 -10 -10 4 -31 7 -45 7 -21 0
-24 2 -12 10 22 14 39 12 58 -7z"/>
<path d="M5610 3030 c-12 -8 -10 -10 8 -10 13 0 20 4 17 10 -7 12 -6 12 -25 0z"/>
<path d="M5456 2921 c-16 -17 -28 -32 -25 -33 42 -26 50 -28 55 -14 3 8 4 28
2 46 l-3 32 -29 -31z"/>
<path d="M2620 2930 c0 -5 5 -10 10 -10 6 0 10 5 10 10 0 6 -4 10 -10 10 -5 0
-10 -4 -10 -10z"/>
<path d="M3202 2910 c0 -14 2 -19 5 -12 2 6 2 18 0 25 -3 6 -5 1 -5 -13z"/>
<path d="M2790 2871 c0 -3 20 -13 45 -22 41 -15 62 -11 34 7 -18 10 -79 23
-79 15z"/>
<path d="M3093 2793 c-28 -19 -30 -33 -4 -33 11 0 21 9 24 22 8 28 7 29 -20
11z"/>
<path d="M3013 2789 c11 -7 23 -7 35 0 14 9 11 10 -18 10 -29 0 -32 -1 -17
-10z"/>
<path d="M4088 2363 c7 -3 16 -2 19 1 4 3 -2 6 -13 5 -11 0 -14 -3 -6 -6z"/>
<path d="M3025 2090 c-3 -5 -2 -10 2 -10 5 0 15 -17 22 -37 8 -21 17 -40 20
-43 4 -3 40 -72 81 -155 82 -166 78 -160 84 -154 2 2 20 91 40 197 20 107 38
198 41 203 4 5 -53 9 -139 9 -86 0 -147 -4 -151 -10z"/>
<path d="M3255 890 c-3 -5 -1 -10 4 -10 6 0 11 5 11 10 0 6 -2 10 -4 10 -3 0
-8 -4 -11 -10z"/>
<path d="M3235 810 c-3 -5 -1 -10 4 -10 6 0 11 5 11 10 0 6 -2 10 -4 10 -3 0
-8 -4 -11 -10z"/>
<path d="M6402 585 c0 -16 2 -22 5 -12 2 9 2 23 0 30 -3 6 -5 -1 -5 -18z"/>
<path d="M5398 563 c7 -3 16 -2 19 1 4 3 -2 6 -13 5 -11 0 -14 -3 -6 -6z"/>
<path d="M5310 530 c0 -5 5 -10 10 -10 6 0 10 5 10 10 0 6 -4 10 -10 10 -5 0
-10 -4 -10 -10z"/>
<path d="M7681 398 c-1 -53 1 -58 20 -58 18 0 20 4 15 26 -4 15 -13 41 -21 58
-13 31 -13 31 -14 -26z"/>
<path d="M6460 360 c-9 -6 -10 -10 -3 -10 6 0 15 5 18 10 8 12 4 12 -15 0z"/>
<path d="M6408 333 c6 -2 18 -2 25 0 6 3 1 5 -13 5 -14 0 -19 -2 -12 -5z"/>
<path d="M6418 293 c12 -2 32 -2 45 0 12 2 2 4 -23 4 -25 0 -35 -2 -22 -4z"/>
<path d="M6258 243 c12 -2 32 -2 45 0 12 2 2 4 -23 4 -25 0 -35 -2 -22 -4z"/>
<path d="M6608 243 c6 -2 18 -2 25 0 6 3 1 5 -13 5 -14 0 -19 -2 -12 -5z"/>
<path d="M6658 243 c6 -2 18 -2 25 0 6 3 1 5 -13 5 -14 0 -19 -2 -12 -5z"/>
<path d="M6043 233 c26 -2 68 -2 95 0 26 2 4 3 -48 3 -52 0 -74 -1 -47 -3z"/>
<path d="M7578 223 c34 -2 90 -2 125 0 34 2 6 3 -63 3 -69 0 -97 -1 -62 -3z"/>
<path d="M7923 223 c32 -2 81 -2 110 0 29 2 3 3 -58 3 -60 0 -84 -1 -52 -3z"/>
<path d="M2858 193 c7 -3 16 -2 19 1 4 3 -2 6 -13 5 -11 0 -14 -3 -6 -6z"/>
<path d="M2893 163 c15 -2 37 -2 50 0 12 2 0 4 -28 4 -27 0 -38 -2 -22 -4z"/>
<path d="M2738 93 c12 -2 32 -2 45 0 12 2 2 4 -23 4 -25 0 -35 -2 -22 -4z"/>
<path d="M3068 93 c7 -3 16 -2 19 1 4 3 -2 6 -13 5 -11 0 -14 -3 -6 -6z"/>
<path d="M3368 4443 c7 -3 16 -2 19 1 4 3 -2 6 -13 5 -11 0 -14 -3 -6 -6z"/>
<path d="M3316 4411 c-11 -12 -16 -30 -13 -48 l4 -28 2 29 c0 16 8 38 18 48 9
10 14 18 11 18 -3 0 -13 -9 -22 -19z"/>
<path d="M3410 4360 c0 -5 7 -10 15 -10 8 0 15 5 15 10 0 6 -7 10 -15 10 -8 0
-15 -4 -15 -10z"/>
<path d="M3462 4301 c-12 -21 -22 -45 -22 -52 1 -8 9 3 19 25 10 21 24 42 31
46 7 4 8 10 3 13 -6 4 -20 -11 -31 -32z"/>
<path d="M3368 4293 c6 -2 18 -2 25 0 6 3 1 5 -13 5 -14 0 -19 -2 -12 -5z"/>
<path d="M3521 4287 c-1 -25 17 -57 32 -57 9 0 9 2 -1 9 -7 4 -17 21 -22 37
-5 17 -9 21 -9 11z"/>
<path d="M3617 4294 c-8 -8 1 -24 14 -24 5 0 9 7 9 15 0 15 -12 20 -23 9z"/>
<path d="M3362 4215 c0 -16 2 -22 5 -12 2 9 2 23 0 30 -3 6 -5 -1 -5 -18z"/>
<path d="M3340 4170 c0 -5 5 -10 11 -10 5 0 7 5 4 10 -3 6 -8 10 -11 10 -2 0
-4 -4 -4 -10z"/>
<path d="M16840 2994 c-77 -34 -120 -98 -125 -192 -4 -65 -5 -67 -34 -75 -59
-15 -62 -32 -59 -267 3 -196 4 -213 22 -226 26 -18 510 -21 550 -3 34 16 38
51 34 277 -3 179 -4 184 -27 203 -13 10 -33 19 -46 19 -21 0 -23 5 -27 74 -4
60 -10 81 -34 116 -54 80 -165 113 -254 74z m179 -47 c52 -35 69 -68 73 -148
l3 -64 -174 -3 -174 -2 5 70 c4 56 11 77 33 106 57 75 156 92 234 41z m169
-467 c2 -184 1 -206 -15 -217 -20 -15 -479 -19 -501 -4 -11 6 -13 53 -13 210
0 111 3 206 6 212 4 6 103 8 263 7 l257 -3 3 -205z"/>
<path d="M16857 2602 c-32 -33 -36 -89 -10 -129 9 -14 20 -52 24 -85 4 -33 10
-62 13 -65 3 -4 20 -6 37 -6 41 0 59 25 59 81 0 28 8 57 21 79 62 100 -64 209
-144 125z m116 -34 c22 -26 22 -40 -3 -71 -14 -17 -20 -40 -20 -74 0 -56 -11
-78 -34 -70 -12 5 -16 20 -16 62 0 42 -5 61 -20 77 -23 25 -26 57 -7 80 25 33
69 31 100 -4z"/>
<path d="M18457 2222 c-31 -34 -32 -75 -2 -110 34 -40 75 -43 110 -7 29 28 32
65 8 106 -15 25 -24 29 -59 29 -27 0 -47 -6 -57 -18z"/>
<path d="M4168 223 c6 -2 18 -2 25 0 6 3 1 5 -13 5 -14 0 -19 -2 -12 -5z"/>
<path d="M4163 173 c32 -2 81 -2 110 0 29 2 3 3 -58 3 -60 0 -84 -1 -52 -3z"/>
<path d="M4543 163 c37 -2 97 -2 135 0 37 2 6 3 -68 3 -74 0 -105 -1 -67 -3z"/>
</g>
</svg>
